<svg id="visual" viewBox="0 0 1366 768" width="1366" height="768" xmlns="http://www.w3.org/2000/svg" xmlns:xlink="http://www.w3.org/1999/xlink" version="1.1"><rect x="0" y="0" width="1366" height="768" fill="#5f008b"></rect><path d="M0 398L57 377C114 356 228 314 341.8 325.3C455.7 336.7 569.3 401.3 683.2 437.7C797 474 911 482 1024.8 488.8C1138.7 495.7 1252.3 501.3 1309.2 504.2L1366 507L1366 769L1309.2 769C1252.3 769 1138.7 769 1024.8 769C911 769 797 769 683.2 769C569.3 769 455.7 769 341.8 769C228 769 114 769 57 769L0 769Z" fill="#9600db" stroke-linecap="round" stroke-linejoin="miter"></path></svg>